# xmcd CD database file
#
# Track frame offsets:
#	150
#	21309
#	37300
#	48117
#	64713
#	82449
#	98731
#	116223
#	140022
#	159507
#
# Disc length: 2432 seconds
#
# Revision: 0
# Processed by: cddbd v1.5.2PL0 Copyright (c) Steve Scherf et al.
# Submitted via: CDex 1.70beta2
#
DISCID=90097e0a
DTITLE=Jürgen Benzin Trio - Take off Jazz
DYEAR=1987
DGENRE=Jazz
TTITLE0=The Days Of Wine And Roses
TTITLE1=Autumn Leaves
TTITLE2=Someday My Price Will Come
TTITLE3=Lullaby Of Birdland
TTITLE4=Song For My Father
TTITLE5=No Moon At All
TTITLE6=Blue Bossa
TTITLE7=How Can You Do A Thing Like That To Me
TTITLE8=If I Had You
TTITLE9=I Can't Give You Anything But Love
EXTD=YEAR: 1987
EXTT0=
EXTT1=
EXTT2=
EXTT3=
EXTT4=
EXTT5=
EXTT6=
EXTT7=
EXTT8=
EXTT9=
PLAYORDER=
